<svg xmlns="http://www.w3.org/2000/svg" xmlns:xlink="http://www.w3.org/1999/xlink" width="1726.782" height="733.185" viewBox="0 0 1726.782 733.185">
  <defs>
    <radialGradient id="radial-gradient" cx="0.493" cy="-0.209" r="1.076" gradientTransform="translate(-0.033) scale(1.065 1)" gradientUnits="objectBoundingBox">
      <stop offset="0" stop-color="#edc266"/>
      <stop offset="0.06" stop-color="#e3c27d"/>
      <stop offset="0.22" stop-color="#ffffcf"/>
      <stop offset="0.41" stop-color="#ffde78"/>
      <stop offset="0.58" stop-color="#cca145"/>
      <stop offset="0.77" stop-color="#6b3800"/>
      <stop offset="1" stop-color="#d6ab4f"/>
    </radialGradient>
  </defs>
  <g id="logo" transform="translate(-224.137 -197.652)">
    <g id="Group_57" data-name="Group 57" transform="translate(224.137 197.652)">
      <path id="Layer_1" d="M334.743,701.3V367.5a32.342,32.342,0,0,1,64.684,0V701.3a36.2,36.2,0,0,0,72.4,0V306.076a36.091,36.091,0,0,0-36.2-35.9H177.187a100.587,100.587,0,1,1,0-201.174H664.395A100.672,100.672,0,0,1,764.981,169.587a32.342,32.342,0,0,1-64.684,0,36.153,36.153,0,0,0-36.2-36.2H176.89a36.2,36.2,0,1,0,0,72.4H435.33A100.672,100.672,0,0,1,535.917,306.373V701.6A100.672,100.672,0,0,1,435.33,802.185C379.844,802.185,334.743,757.085,334.743,701.3Z" transform="translate(-76.6 -69)" fill-rule="evenodd" fill="url(#radial-gradient)"/>
    </g>
    <g id="Group_59" data-name="Group 59" transform="translate(740.157 681.658)">
      <g id="Group_58" data-name="Group 58" transform="translate(0)">
        <path id="Path_113" data-name="Path 113" d="M11.346,106.63H1.6V7.777h9.746ZM95.194,64.165V106.63H85.68V66.1q0-12.763-3.713-18.719Q78.177,41.5,70.132,41.5h0a24.326,24.326,0,0,0-10.984,2.707,30.945,30.945,0,0,0-9.591,7.348,27.794,27.794,0,0,0-5.879,10.674h0v44.4H34.164V34.076h8.663V50.552a32.34,32.34,0,0,1,7.658-9.282,36.372,36.372,0,0,1,10.752-6.188,34.828,34.828,0,0,1,12.376-2.243h0a21.165,21.165,0,0,1,10.133,2.243,17.653,17.653,0,0,1,6.729,6.343,29.5,29.5,0,0,1,3.558,9.9,64.886,64.886,0,0,1,1.16,12.84Zm51.747,31.327,2.553,7.658a29.821,29.821,0,0,0-3.481,1.547,35.217,35.217,0,0,1-5.724,1.934,29.3,29.3,0,0,1-7.271.851h0a18.8,18.8,0,0,1-7.58-1.547,12.815,12.815,0,0,1-5.647-4.641,13.756,13.756,0,0,1-2.088-7.735h0V41.579h-9.978v-7.5H117.7V9.556h9.514v24.52h16.708v7.5H127.217V90.928a7.319,7.319,0,0,0,2.862,5.8,9.471,9.471,0,0,0,5.879,1.934h0a18.421,18.421,0,0,0,7.116-1.315,22.472,22.472,0,0,0,3.868-1.856Zm44.476,12.531h0a35.137,35.137,0,0,1-14.542-3.017,34.6,34.6,0,0,1-11.525-8.2,37.405,37.405,0,0,1-7.58-12.067,39.193,39.193,0,0,1-2.707-14.619h0A38.3,38.3,0,0,1,159.7,51.48a35.408,35.408,0,0,1,12.917-13.536,34.535,34.535,0,0,1,18.641-5.105h0a33.8,33.8,0,0,1,18.719,5.182A36.984,36.984,0,0,1,222.59,51.557a38.21,38.21,0,0,1,4.564,18.487h0v2.088A6.342,6.342,0,0,1,227,73.757H164.964A31.933,31.933,0,0,0,169.3,87.6a27.99,27.99,0,0,0,9.669,9.669,24.747,24.747,0,0,0,12.84,3.481h0a27.093,27.093,0,0,0,13.459-3.558,19.811,19.811,0,0,0,8.818-9.514h0l8.2,2.243a27.426,27.426,0,0,1-6.807,9.359,31.754,31.754,0,0,1-10.752,6.42A38,38,0,0,1,191.417,108.023ZM164.654,66.95h53.6A29.689,29.689,0,0,0,214,53.027a27.3,27.3,0,0,0-9.591-9.359,25.3,25.3,0,0,0-12.995-3.481h0a25.031,25.031,0,0,0-12.995,3.481,27.311,27.311,0,0,0-9.514,9.437A29.94,29.94,0,0,0,164.654,66.95ZM277.972,33.844V42.43a30.092,30.092,0,0,0-16.63,5.337,25.865,25.865,0,0,0-10.056,13.768h0v45.1h-9.514V34.076h8.9v17.4A34.49,34.49,0,0,1,260.646,39.1a24.577,24.577,0,0,1,13.15-5.26h0a22.684,22.684,0,0,1,2.475-.155,7.981,7.981,0,0,1,1.7.155Zm6.575,51.9h0a18.529,18.529,0,0,1,3.867-11.757,25.326,25.326,0,0,1,10.829-7.658,43.346,43.346,0,0,1,15.934-2.707h0a74.747,74.747,0,0,1,10.984.851,44.859,44.859,0,0,1,10.133,2.475h0V60.839q0-9.2-5.415-14.619t-15.006-5.415h0a31.936,31.936,0,0,0-11.525,2.166,54.672,54.672,0,0,0-11.757,6.265h0l-3.635-6.652a60.285,60.285,0,0,1,13.923-7.271A40.883,40.883,0,0,1,316.8,32.838h0q13.382,0,21.194,7.658t7.812,21.194h0V95.183a3.956,3.956,0,0,0,.851,2.862,3.677,3.677,0,0,0,2.63,1.083h0v7.5q-1.547.155-2.63.309a9.072,9.072,0,0,1-1.7,0h0a6.958,6.958,0,0,1-5.26-2.243,7.394,7.394,0,0,1-2.011-4.486h0l-.077-5.26a31.843,31.843,0,0,1-12.685,9.669,39.364,39.364,0,0,1-15.857,3.4h0a26.329,26.329,0,0,1-12.608-3.017,22.2,22.2,0,0,1-8.818-8.044A21.231,21.231,0,0,1,284.547,85.746Zm48.576,5.569h0a18.412,18.412,0,0,0,2.4-3.79,8.1,8.1,0,0,0,.774-3.171h0v-10.6a62.089,62.089,0,0,0-9.746-2.785,57.393,57.393,0,0,0-10.288-.928h0q-10.133,0-16.4,4.022T293.6,85.05h0a14.733,14.733,0,0,0,2.088,7.58,16.366,16.366,0,0,0,6.111,5.879,19.063,19.063,0,0,0,9.437,2.243h0A30.892,30.892,0,0,0,324,98.122,22.606,22.606,0,0,0,333.123,91.315Zm64.587,16.708h0A34.972,34.972,0,0,1,371.643,96.73a37.844,37.844,0,0,1-7.658-12.067,39.374,39.374,0,0,1-2.707-14.542h0a39.129,39.129,0,0,1,4.564-18.8,34.985,34.985,0,0,1,12.84-13.459,35.37,35.37,0,0,1,18.873-5.028h0a34.612,34.612,0,0,1,18.023,4.641A29.512,29.512,0,0,1,427.1,50.087h0l-9.2,2.939a21.5,21.5,0,0,0-8.508-8.663,24.269,24.269,0,0,0-12.221-3.171h0a24.13,24.13,0,0,0-13.227,3.79,26.964,26.964,0,0,0-9.514,10.288,30.413,30.413,0,0,0-3.558,14.851h0a30.612,30.612,0,0,0,3.635,14.929A29.058,29.058,0,0,0,384.1,95.724a23.438,23.438,0,0,0,13.227,3.945h0a26.4,26.4,0,0,0,16.785-6.188,14.192,14.192,0,0,0,4.332-6.188h0l9.359,2.785a24.2,24.2,0,0,1-6.5,9.282,31.878,31.878,0,0,1-10.52,6.343A36.511,36.511,0,0,1,397.71,108.023Zm77.273-12.531,2.553,7.658a29.818,29.818,0,0,0-3.481,1.547,35.22,35.22,0,0,1-5.724,1.934,29.3,29.3,0,0,1-7.271.851h0a18.8,18.8,0,0,1-7.58-1.547,12.815,12.815,0,0,1-5.647-4.641,13.756,13.756,0,0,1-2.088-7.735h0V41.579h-9.978v-7.5h9.978V9.556h9.514v24.52h16.708v7.5H455.259V90.928a7.319,7.319,0,0,0,2.862,5.8A9.471,9.471,0,0,0,464,98.663h0a18.794,18.794,0,0,0,7.116-1.315,22.474,22.474,0,0,0,3.868-1.856Zm23.824,11.138H489.37V34.076h9.437Zm0-87.715H489.37V4.992h9.437Zm52.6,87.715H541.272L511.879,34.076h9.9l24.752,63.118,24.984-63.118H580.8Zm71.317,1.392h0a35.63,35.63,0,0,1-26.067-11.216,37.4,37.4,0,0,1-7.58-12.067,39.192,39.192,0,0,1-2.707-14.619h0a37.8,37.8,0,0,1,4.718-18.641,35.594,35.594,0,0,1,12.84-13.536,34.535,34.535,0,0,1,18.641-5.105h0a33.557,33.557,0,0,1,18.719,5.182,36.144,36.144,0,0,1,12.608,13.536,37.7,37.7,0,0,1,4.641,18.487h0v2.088a6.348,6.348,0,0,1-.155,1.624H596.268A31.327,31.327,0,0,0,600.677,87.6a27.349,27.349,0,0,0,9.591,9.669,24.747,24.747,0,0,0,12.84,3.481h0a27.093,27.093,0,0,0,13.459-3.558,19.81,19.81,0,0,0,8.818-9.514h0l8.276,2.243a27,27,0,0,1-6.884,9.359,31.754,31.754,0,0,1-10.752,6.42A37.583,37.583,0,0,1,622.722,108.023ZM595.959,66.95h53.6a30.238,30.238,0,0,0-4.177-13.923,27.1,27.1,0,0,0-9.669-9.359,25.031,25.031,0,0,0-12.995-3.481h0A24.625,24.625,0,0,0,609.8,43.667a27.1,27.1,0,0,0-9.591,9.437A31.2,31.2,0,0,0,595.959,66.95ZM769.61,64.165V106.63h-9.437V66.1q0-12.763-3.79-18.719-3.79-5.879-11.835-5.879h0a24.326,24.326,0,0,0-10.984,2.707,31.247,31.247,0,0,0-9.514,7.348A27.293,27.293,0,0,0,718.1,62.231h0v44.4h-9.437V34.076h8.586V50.552A32.341,32.341,0,0,1,724.9,41.27a36.374,36.374,0,0,1,10.752-6.188,34.827,34.827,0,0,1,12.376-2.243h0a21.165,21.165,0,0,1,10.133,2.243,17.653,17.653,0,0,1,6.729,6.343,30.683,30.683,0,0,1,3.635,9.9,69.381,69.381,0,0,1,1.083,12.84Zm29.625,42.465H789.8V34.076h9.437Zm0-87.715H789.8V4.992h9.437Zm50.046,88.721h0a30.493,30.493,0,0,1-13.691-3.094,33.934,33.934,0,0,1-10.752-8.276A38.5,38.5,0,0,1,817.8,84.354a38.112,38.112,0,0,1-2.553-13.768h0A41.349,41.349,0,0,1,817.722,56.2a36.956,36.956,0,0,1,6.962-12.067,31.417,31.417,0,0,1,10.674-8.276,30.333,30.333,0,0,1,13.614-3.017h0a28.025,28.025,0,0,1,16.244,4.718,43.861,43.861,0,0,1,11.6,11.68h0V34.076h8.509V106.94q0,9.978-4.8,16.862a29.474,29.474,0,0,1-12.995,10.365,44.493,44.493,0,0,1-17.713,3.481h0q-12.376,0-20.034-4.409a37.149,37.149,0,0,1-12.531-11.989h0l5.8-4.564a26.707,26.707,0,0,0,11.525,10.133,35.543,35.543,0,0,0,15.238,3.326h0a32.285,32.285,0,0,0,12.995-2.553,21.6,21.6,0,0,0,9.514-7.735q3.481-5.182,3.481-12.917h0V92.553a31.836,31.836,0,0,1-11.37,10.984A30.45,30.45,0,0,1,849.281,107.636Zm2.63-7.967h0a22.467,22.467,0,0,0,8.276-1.547,29.672,29.672,0,0,0,7.271-4.1,23.679,23.679,0,0,0,5.569-5.8,15.557,15.557,0,0,0,2.785-6.5h0V59.292a29.239,29.239,0,0,0-5.956-9.359,27.3,27.3,0,0,0-8.818-6.42,23.969,23.969,0,0,0-10.288-2.32h0a22.852,22.852,0,0,0-10.906,2.553,25.3,25.3,0,0,0-8.044,6.884,30.722,30.722,0,0,0-5.105,9.514,32.882,32.882,0,0,0-1.779,10.6h0A29.7,29.7,0,0,0,827,81.8a31.777,31.777,0,0,0,5.724,9.282,26.139,26.139,0,0,0,8.663,6.343A25.193,25.193,0,0,0,851.911,99.669Zm115.252-35.5V106.63h-9.437V66.1q0-12.221-4.332-18.409T941.018,41.5h0a22.5,22.5,0,0,0-10.52,2.707,30.036,30.036,0,0,0-9.2,7.348,28.012,28.012,0,0,0-5.647,10.674h0v44.4h-9.437V4.992h9.437V50.552a33.434,33.434,0,0,1,12.067-12.917,30.741,30.741,0,0,1,16.476-4.8h0a23.319,23.319,0,0,1,10.674,2.243,17.964,17.964,0,0,1,7.116,6.5,29.509,29.509,0,0,1,3.945,9.823,59.851,59.851,0,0,1,1.238,12.763Zm51.825,31.327,2.475,7.658q-1.083.387-3.481,1.547a32.094,32.094,0,0,1-5.724,1.934,28.962,28.962,0,0,1-7.193.851h0a18.8,18.8,0,0,1-7.58-1.547,12.815,12.815,0,0,1-5.647-4.641,13.756,13.756,0,0,1-2.088-7.735h0V41.579H979.693v-7.5h10.056V9.556h9.437v24.52h16.708v7.5H999.186V90.928a7.634,7.634,0,0,0,2.862,5.8A9.588,9.588,0,0,0,1008,98.663h0a18.209,18.209,0,0,0,7.039-1.315,22.368,22.368,0,0,0,3.945-1.856Zm14.774-2.088V4.992h9.437v85.24q0,5.415,1.934,7.039a6.891,6.891,0,0,0,4.718,1.7h0a23.46,23.46,0,0,0,5.028-.541,36.374,36.374,0,0,0,4.332-1.16h0l1.7,7.658a30.654,30.654,0,0,1-6.5,1.856,38.375,38.375,0,0,1-6.652.7h0a13.96,13.96,0,0,1-10.21-3.79q-3.79-3.713-3.79-10.288Zm46.874,13.227H1071.2V34.076h9.437Zm0-87.715H1071.2V4.992h9.437Zm33.879,87.715H1105V41.579h-9.978v-7.5H1105V32.142a40.314,40.314,0,0,1,2.63-15.315A21.3,21.3,0,0,1,1114.979,7a19.135,19.135,0,0,1,11.37-3.4h0a28.753,28.753,0,0,1,8.354,1.238,24.229,24.229,0,0,1,6.962,3.326h0l-2.939,6.884a13.111,13.111,0,0,0-4.718-2.4,21.053,21.053,0,0,0-5.879-.851h0a11.372,11.372,0,0,0-10.056,5.182q-3.558,5.105-3.558,14.851h0v2.243h20.034v7.5h-20.034Zm62.035,1.392h0a34.952,34.952,0,0,1-14.465-3.017,34.6,34.6,0,0,1-11.525-8.2,37.4,37.4,0,0,1-7.58-12.067,39.193,39.193,0,0,1-2.707-14.619h0a38.294,38.294,0,0,1,4.641-18.641,35.591,35.591,0,0,1,12.84-13.536,34.929,34.929,0,0,1,18.719-5.105h0a33.8,33.8,0,0,1,18.719,5.182A36.985,36.985,0,0,1,1207.8,51.557a38.209,38.209,0,0,1,4.564,18.487h0v2.088a6.341,6.341,0,0,1-.155,1.624H1150.1A31.327,31.327,0,0,0,1154.5,87.6a28.221,28.221,0,0,0,9.591,9.669,25.156,25.156,0,0,0,12.917,3.481h0a27.093,27.093,0,0,0,13.459-3.558,20.317,20.317,0,0,0,8.818-9.514h0l8.2,2.243a27.426,27.426,0,0,1-6.807,9.359,32.613,32.613,0,0,1-10.829,6.42A37.583,37.583,0,0,1,1176.55,108.023ZM1149.864,66.95h53.6a29.688,29.688,0,0,0-4.254-13.923,27.305,27.305,0,0,0-9.591-9.359,25.441,25.441,0,0,0-13.072-3.481h0a24.889,24.889,0,0,0-12.918,3.481,26.477,26.477,0,0,0-9.514,9.437A29.939,29.939,0,0,0,1149.864,66.95Z" transform="translate(-1.6 -3.6)" fill="#fed74f"/>
      </g>
    </g>
    <g id="Group_61" data-name="Group 61" transform="translate(740.157 446.859)">
      <g id="Group_60" data-name="Group 60" transform="translate(0)">
        <path id="Path_114" data-name="Path 114" d="M96.755,204.573H3.78V9.65H91.186q33.725,0,51.825,13.459,18.1,13.536,18.1,36.9h0q0,15.934-7.116,26.763a47.431,47.431,0,0,1-19.028,16.708,58.062,58.062,0,0,1-25.912,5.879h0L114.081,101q16.708,0,29.47,5.8a47.69,47.69,0,0,1,20.343,17.172q7.5,11.216,7.5,27.923h0q0,25.061-18.8,38.907-18.8,13.768-55.847,13.768ZM31.626,32.159V181.986H95.672q23.128,0,35.349-7.812,12.3-7.735,12.3-24.443h0q0-17.017-12.3-24.829-12.221-7.812-35.349-7.812H29.151V94.581h59.56q21.194,0,32.874-7.812t11.68-23.36h0q0-15.625-11.68-23.437T88.711,32.159H31.626ZM347.988,204.573H214.559V9.65h27.846V180.362H347.988Zm31.172,0h-28.7L438.72,9.65h27.614l88.489,194.923H525.584L446.842,25.2H457.98Zm134.2-48.731H388.056l7.5-22.277h109.76Zm98.312,48.731H583.829V9.65h22.818L735.59,169.765H723.6V9.65h27.846V204.573H728.629L599.686,44.458h11.989Zm262.6-87.483-39.835,40.377-1.392-33.957L943.585,9.65H975.3L889.827,99.84ZM837.77,204.573H809.924V9.65H837.77Zm142.866,0H948.071l-79.98-93.052L886.81,90.945Z" transform="translate(-3.78 -9.65)" fill="#fff"/>
      </g>
    </g>
  </g>
</svg>
